<?xml version="1.0" encoding="UTF-8"?>
<svg version="1.1" xmlns="http://www.w3.org/2000/svg" width="172" height="140">
<path d="M0 0 C1.06474716 0.91120206 2.10877001 1.84748585 3.125 2.8125 C5.87935884 5.34530388 5.87935884 5.34530388 9.625 5.125 C14.41178107 4.18242921 18.82893377 2.13322122 23.265625 0.15625 C25.52896571 -0.80081979 27.60408633 -1.49799904 30 -2 C28.15243047 5.20552118 24.18001276 11.78635494 18 16 C18.81984375 15.79503906 19.6396875 15.59007813 20.484375 15.37890625 C24.98958333 14.25260417 29.49479167 13.12630208 34 12 C32.55930366 16.45158982 30.29108316 19.2146493 27.125 22.625 C25.82949219 24.03652344 25.82949219 24.03652344 24.5078125 25.4765625 C22 28 22 28 19.73828125 29.2421875 C16.72234496 32.29201071 17.25886753 36.37995909 17.0625 40.5 C14.96263826 69.0718893 3.15733163 94.28821521 -18.23632812 113.50244141 C-40.57057596 132.46676535 -67.47206874 137.29990084 -96 136 C-111.14443456 134.62267299 -124.98535781 128.50179542 -138 121 C-137.505 120.01 -137.505 120.01 -137 119 C-135.61941406 119.05220703 -135.61941406 119.05220703 -134.2109375 119.10546875 C-118.68602392 119.43746792 -102.59330768 116.79479487 -90 107 C-90 106.67 -90 106.34 -90 106 C-90.6290625 105.84144531 -91.258125 105.68289062 -91.90625 105.51953125 C-101.91435302 102.79141883 -110.68880794 97.90553772 -116.32421875 88.87890625 C-117.99537322 85.68318981 -119 83.65532396 -119 80 C-115.37 80 -111.74 80 -108 80 C-110.0109375 78.948125 -110.0109375 78.948125 -112.0625 77.875 C-122.03079681 72.21225862 -126.88629418 65.6513516 -131 55 C-131.71003794 51.63047085 -132.0554953 48.44070835 -132 45 C-127.61667943 45.82187261 -123.32059823 46.90154282 -119 48 C-119.45890625 47.5153125 -119.9178125 47.030625 -120.390625 46.53125 C-129.12498197 36.9895155 -131.47499205 28.83816785 -131.30078125 16.0859375 C-131.06663833 10.90597576 -129.44713944 6.54468753 -127 2 C-123.8245514 3.36578434 -122.16348255 4.78042577 -120.0625 7.5 C-103.36481451 27.02181834 -78.47905216 34.99611248 -54 39 C-54.15855469 38.41089844 -54.31710938 37.82179687 -54.48046875 37.21484375 C-56.54850631 28.3984731 -53.92300622 19.14045922 -49.52734375 11.41015625 C-38.63023396 -3.66031474 -16.5425973 -10.1651185 0 0 Z " 
    fill="#29A9E0" 
    transform="translate(138,4)"
    stroke="#000000" 
    stroke-width="2" 
    transform="translate(138,4)"
/>
</svg>
